<svg width="25" height="22" viewBox="0 0 25 22" fill="none" xmlns="http://www.w3.org/2000/svg">
<path d="M12.4998 0.0512695C5.82984 0.0512695 0.416504 4.9046 0.416504 10.8846C0.416504 16.8646 5.82984 21.7179 12.4998 21.7179C19.1698 21.7179 24.5832 16.8646 24.5832 10.8846C24.5832 4.9046 19.1698 0.0512695 12.4998 0.0512695ZM12.4998 3.30127C14.5057 3.30127 16.1248 4.75294 16.1248 6.55127C16.1248 8.3496 14.5057 9.80127 12.4998 9.80127C10.494 9.80127 8.87484 8.3496 8.87484 6.55127C8.87484 4.75294 10.494 3.30127 12.4998 3.30127ZM12.4998 18.6846C9.479 18.6846 6.80859 17.2979 5.24984 15.1963C5.28609 13.0404 10.0832 11.8596 12.4998 11.8596C14.9044 11.8596 19.7136 13.0404 19.7498 15.1963C18.1911 17.2979 15.5207 18.6846 12.4998 18.6846Z" fill="black"/>
</svg>
