<svg width="16" height="19" viewBox="0 0 16 19" fill="none" xmlns="http://www.w3.org/2000/svg">
<path d="M8.02 5.73001C7.29 5.73001 6.16 4.90001 4.97 4.93001C3.4 4.95001 1.96 5.84001 1.15 7.25001C-0.48 10.08 0.73 14.26 2.32 16.56C3.1 17.68 4.02 18.94 5.24 18.9C6.41 18.85 6.85 18.14 8.27 18.14C9.68 18.14 10.08 18.9 11.32 18.87C12.58 18.85 13.38 17.73 14.15 16.6C15.04 15.3 15.41 14.04 15.43 13.97C15.4 13.96 12.98 13.03 12.95 10.23C12.93 7.89001 14.86 6.77001 14.95 6.72001C13.85 5.11001 12.16 4.93001 11.57 4.89001C10.03 4.77001 8.74 5.73001 8.02 5.73001ZM10.62 3.37001C11.27 2.59001 11.7 1.50001 11.58 0.420013C10.65 0.460013 9.53 1.04001 8.86 1.82001C8.26 2.51001 7.74 3.62001 7.88 4.68001C8.91 4.76001 9.97 4.15001 10.62 3.37001Z" fill="black"/>
</svg>
