<svg width="14" height="18" viewBox="0 0 14 18" fill="none" xmlns="http://www.w3.org/2000/svg">
<path fill-rule="evenodd" clip-rule="evenodd" d="M6.99918 0.25C7.19809 0.25 7.38885 0.329018 7.52951 0.46967C7.67016 0.610322 7.74918 0.801088 7.74918 1V15.19L12.4692 10.47C12.5378 10.3963 12.6206 10.3372 12.7126 10.2962C12.8046 10.2552 12.904 10.2332 13.0047 10.2314C13.1054 10.2296 13.2054 10.2482 13.2988 10.2859C13.3922 10.3236 13.477 10.3797 13.5482 10.451C13.6194 10.5222 13.6756 10.607 13.7133 10.7004C13.751 10.7938 13.7695 10.8938 13.7678 10.9945C13.766 11.0952 13.7439 11.1945 13.703 11.2865C13.662 11.3785 13.6029 11.4613 13.5292 11.53L7.52918 17.53C7.38855 17.6705 7.19793 17.7493 6.99918 17.7493C6.80043 17.7493 6.6098 17.6705 6.46918 17.53L0.469177 11.53C0.39549 11.4613 0.336388 11.3785 0.295396 11.2865C0.254404 11.1945 0.232362 11.0952 0.230585 10.9945C0.228809 10.8938 0.247333 10.7938 0.285054 10.7004C0.322775 10.607 0.37892 10.5222 0.450138 10.451C0.521357 10.3797 0.606191 10.3236 0.699579 10.2859C0.792967 10.2482 0.892997 10.2296 0.993699 10.2314C1.0944 10.2332 1.19372 10.2552 1.28571 10.2962C1.37771 10.3372 1.46052 10.3963 1.52918 10.47L6.24918 15.19V1C6.24918 0.801088 6.3282 0.610322 6.46885 0.46967C6.6095 0.329018 6.80026 0.25 6.99918 0.25Z" fill="#010205"/>
</svg>
