<svg width="16" height="15" viewBox="0 0 16 15" fill="none" xmlns="http://www.w3.org/2000/svg">
<path d="M0.5 1.5C0.5 1.30109 0.579018 1.11032 0.71967 0.96967C0.860322 0.829018 1.05109 0.75 1.25 0.75H14.75C14.9489 0.75 15.1397 0.829018 15.2803 0.96967C15.421 1.11032 15.5 1.30109 15.5 1.5C15.5 1.69891 15.421 1.88968 15.2803 2.03033C15.1397 2.17098 14.9489 2.25 14.75 2.25H1.25C1.05109 2.25 0.860322 2.17098 0.71967 2.03033C0.579018 1.88968 0.5 1.69891 0.5 1.5ZM1.25 8.25H14.75C14.9489 8.25 15.1397 8.17098 15.2803 8.03033C15.421 7.88968 15.5 7.69891 15.5 7.5C15.5 7.30109 15.421 7.11032 15.2803 6.96967C15.1397 6.82902 14.9489 6.75 14.75 6.75H1.25C1.05109 6.75 0.860322 6.82902 0.71967 6.96967C0.579018 7.11032 0.5 7.30109 0.5 7.5C0.5 7.69891 0.579018 7.88968 0.71967 8.03033C0.860322 8.17098 1.05109 8.25 1.25 8.25ZM1.25 14.25H14.75C14.9489 14.25 15.1397 14.171 15.2803 14.0303C15.421 13.8897 15.5 13.6989 15.5 13.5C15.5 13.3011 15.421 13.1103 15.2803 12.9697C15.1397 12.829 14.9489 12.75 14.75 12.75H1.25C1.05109 12.75 0.860322 12.829 0.71967 12.9697C0.579018 13.1103 0.5 13.3011 0.5 13.5C0.5 13.6989 0.579018 13.8897 0.71967 14.0303C0.860322 14.171 1.05109 14.25 1.25 14.25Z" fill="black"/>
</svg>
