<svg width="24" height="19" viewBox="0 0 24 19" fill="none" xmlns="http://www.w3.org/2000/svg">
<path d="M23.6502 3.29024L12.994 0.891761C12.9514 0.88223 12.906 0.88223 12.8634 0.891761L2.20717 3.29024C2.10264 3.31371 2.03027 3.39055 2.03027 3.47828V10.5056C1.25692 11.4595 0.577148 12.6107 0.577148 13.9704C0.577148 16.0121 2.14996 18.072 5.66309 18.072C7.45556 18.072 8.89672 17.6411 9.86572 16.8324L12.8852 17.2759C12.8999 17.278 12.9141 17.2791 12.9287 17.2791C12.9433 17.2791 12.9576 17.278 12.9722 17.2759L23.6285 15.7134C23.7434 15.6966 23.8271 15.6157 23.8271 15.5213V3.47828C23.8271 3.39055 23.7547 3.31368 23.6502 3.29024ZM18.0146 2.42727L20.0751 3.47828L20.4365 5.69672C20.4365 5.75528 20.4062 5.80813 20.3508 5.84586C20.2955 5.88383 19.5378 5.44625 19.4678 5.43633L18.217 5.62899C18.0997 5.61336 18.0146 5.53227 18.0146 5.43633L18.0146 2.42727ZM2.5146 3.62649L12.6865 1.33703V16.8497L10.2272 16.4886C11.112 15.5317 11.4296 14.2183 11.1085 12.7549C10.6303 10.5767 8.67808 10.0129 8.5953 9.98981C8.50351 9.96387 8.40043 9.98563 8.33562 10.0449C8.27081 10.1039 8.25614 10.1884 8.29872 10.2593C9.1175 11.6322 8.68709 12.5389 8.22306 12.788C7.95297 12.9336 7.65779 12.8895 7.41468 12.6688C7.0949 12.3789 7.21178 11.9641 7.44544 11.2559C7.72076 10.4225 8.09726 9.28156 7.42224 7.94813C6.41377 5.95703 4.1778 6.3536 4.1546 6.35836C4.0846 6.37153 4.02546 6.40965 3.9933 6.46172C3.96114 6.51379 3.95973 6.575 3.98904 6.62825C4.01268 6.67137 4.55808 7.69352 3.65981 8.71106C3.50466 8.88711 3.32351 9.07746 3.12859 9.2827C2.93329 9.48813 2.72487 9.70774 2.5146 9.9409V3.62649ZM5.66309 16.4886C2.26679 16.4886 2.03027 15.6823 2.03027 13.9704C2.03027 12.0999 2.47817 10.6089 3.51314 9.5202C3.71135 9.31114 3.89628 9.11699 4.05428 8.9377C4.84943 8.03703 4.68198 7.13145 4.53488 6.71032C5.07743 6.67981 6.30779 6.78203 6.9738 8.09582C7.58731 9.30774 7.24912 10.3322 6.97758 11.1554C6.74484 11.8594 6.54431 12.4673 7.05232 12.9283C7.45489 13.2937 8.02059 13.3668 8.49174 13.1133C9.16768 12.7501 9.50544 11.8035 8.99786 10.6053C9.55271 10.9164 10.3564 11.5697 10.6317 12.8232C10.9415 14.2344 10.6038 15.5396 9.70452 16.404C8.82329 17.2516 7.46389 16.4886 5.66309 16.4886ZM23.3427 15.3582L13.1709 16.8497V1.33707L17.5302 2.31825V5.43637C17.5302 5.72418 17.7856 5.96719 18.1376 6.0143L20.0751 6.27485C20.1148 6.2802 20.155 6.28286 20.1948 6.28286C20.3655 6.28286 20.5316 6.23442 20.664 6.14399C20.8272 6.03243 20.9209 5.86934 20.9209 5.69672V3.08137L23.3428 3.62645L23.3427 15.3582Z" fill="black"/>
</svg>
