<svg width="12" height="16" viewBox="0 0 12 16" fill="none" xmlns="http://www.w3.org/2000/svg">
<path fill-rule="evenodd" clip-rule="evenodd" d="M0.750001 1.25C0.750001 0.835786 1.08579 0.5 1.5 0.5H3C3.41421 0.5 3.75 0.835786 3.75 1.25V14.75C3.75 15.1642 3.41421 15.5 3 15.5H1.5C1.30109 15.5 1.11032 15.421 0.96967 15.2803C0.829018 15.1397 0.75 14.9489 0.75 14.75L0.750001 1.25ZM8.25 1.25C8.25 0.835786 8.58579 0.5 9 0.5H10.5C10.6989 0.5 10.8897 0.579018 11.0303 0.71967C11.171 0.860322 11.25 1.05109 11.25 1.25V14.75C11.25 15.1642 10.9142 15.5 10.5 15.5H9C8.58579 15.5 8.25 15.1642 8.25 14.75V1.25Z" fill="black"/>
</svg>
