<svg width="16" height="16" viewBox="0 0 16 16" fill="none" xmlns="http://www.w3.org/2000/svg">
<path d="M15.27 14.79L11.21 10.73C12.0833 9.64447 12.5596 8.2932 12.56 6.9C12.56 3.51 9.79999 0.75 6.40999 0.75C3.01999 0.75 0.259995 3.51 0.259995 6.9C0.259995 10.29 3.01999 13.05 6.40999 13.05C7.83999 13.05 9.15999 12.55 10.21 11.72L14.27 15.78L15.27 14.79ZM6.39999 11.83C5.09594 11.8274 3.84605 11.3082 2.92395 10.386C2.00184 9.46394 1.48264 8.21405 1.47999 6.91C1.47999 4.2 3.67999 1.99 6.39999 1.99C9.12 1.99 11.32 4.2 11.32 6.91C11.33 9.62 9.12 11.83 6.39999 11.83Z" fill="black"/>
</svg>
