<svg width="32" height="33" viewBox="0 0 32 33" fill="none" xmlns="http://www.w3.org/2000/svg">
<path fill-rule="evenodd" clip-rule="evenodd" d="M14.69 26.2179C14.2135 26.2179 13.8069 25.8642 13.7293 25.3819C13.6579 24.9918 13.384 24.673 13.0156 24.5513C12.7154 24.4455 12.4219 24.3209 12.1368 24.1779C11.7975 23.9999 11.3905 24.0266 11.076 24.2473C10.6954 24.5279 10.1726 24.4845 9.84101 24.1446L8.55141 22.8219C8.20435 22.4659 8.15925 21.9047 8.44481 21.4953C8.66504 21.1653 8.69676 20.7398 8.52801 20.3793C8.41683 20.1289 8.31875 19.8725 8.23421 19.6113C8.11313 19.1997 7.77893 18.8914 7.36711 18.8113C6.87049 18.7299 6.50387 18.2925 6.50001 17.7766V16.1219C6.49737 15.5274 6.91607 15.0189 7.48801 14.9219C7.92191 14.8373 8.28421 14.5325 8.45001 14.1126C8.49941 13.9944 8.55141 13.877 8.60601 13.7606C8.82652 13.3252 8.79607 12.8007 8.52671 12.3953C8.18987 11.9151 8.24159 11.2554 8.64891 10.8366L9.59661 9.8646C10.064 9.38503 10.8012 9.32296 11.3386 9.71794L11.3685 9.73927C11.7698 10.0163 12.2804 10.0665 12.7257 9.8726C13.2021 9.69675 13.5532 9.27692 13.65 8.76727L13.6631 8.72194C13.77 8.04723 14.3381 7.55155 15.0047 7.55127H16.1487C16.8331 7.55095 17.4172 8.0587 17.5292 8.75127L17.55 8.8446C17.6419 9.33283 17.9748 9.7369 18.4288 9.91127C18.8664 10.1039 19.3696 10.0536 19.7627 9.77794L19.8276 9.72994C20.3789 9.32239 21.1371 9.38507 21.6177 9.87794L22.49 10.7739C22.9272 11.2248 22.9821 11.9338 22.62 12.4499C22.3363 12.8813 22.3001 13.4356 22.5251 13.9019L22.5811 14.0353C22.7632 14.4906 23.1575 14.8206 23.6288 14.9126C24.2449 15.0157 24.698 15.5605 24.7 16.2006V17.6846C24.6999 18.2491 24.3017 18.7307 23.7588 18.8233C23.3123 18.9111 22.9485 19.2427 22.8111 19.6873C22.7504 19.865 22.6828 20.0429 22.6083 20.2206C22.4348 20.6113 22.4733 21.0665 22.7097 21.4206C23.0216 21.8657 22.9732 22.477 22.5953 22.8646L21.3851 24.1073C21.0389 24.4622 20.4931 24.5079 20.0955 24.2153C19.7635 23.9826 19.3335 23.957 18.9775 24.1486C18.7237 24.2775 18.4633 24.3919 18.1975 24.4913C17.8256 24.6229 17.5515 24.9493 17.4799 25.3459C17.404 25.845 16.9868 26.2142 16.4944 26.2179H14.69Z" stroke="black" stroke-width="2" stroke-linecap="round" stroke-linejoin="round"/>
<path fill-rule="evenodd" clip-rule="evenodd" d="M18.6327 16.8846C18.6327 18.6026 17.2749 19.9953 15.5998 19.9953C13.9247 19.9953 12.5669 18.6026 12.5669 16.8846C12.5669 15.1666 13.9247 13.7739 15.5998 13.7739C17.2749 13.7739 18.6327 15.1666 18.6327 16.8846Z" stroke="black" stroke-width="2" stroke-linecap="round" stroke-linejoin="round"/>
</svg>
